<svg xmlns="http://www.w3.org/2000/svg" width="340" height="340" viewBox="0 0 340 340">
  <g fill="none" stroke="#2c2620" stroke-opacity="0.038" stroke-width="2.2" stroke-linecap="round" stroke-linejoin="round">

    
    <g transform="translate(34,52) rotate(-28)">
      <rect x="0" y="0" width="60" height="13" rx="3"></rect>
      <line x1="14" y1="0" x2="14" y2="13"></line>
      <path d="M60 0 L74 6.5 L60 13"></path>
      <line x1="68" y1="6.5" x2="74" y2="6.5"></line>
      <rect x="-9" y="1.5" width="9" height="10" rx="2"></rect>
    </g>

    
    <g transform="translate(196,46)">
      <path d="M2 6 Q 17 -1 31 6 L31 30 Q 17 23 2 30 Z"></path>
      <path d="M31 6 Q 45 -1 60 6 L60 30 Q 45 23 31 30 Z"></path>
      <line x1="31" y1="6" x2="31" y2="30"></line>
      <line x1="9" y1="13" x2="24" y2="11"></line>
      <line x1="38" y1="11" x2="53" y2="13"></line>
    </g>

    
    <g transform="translate(56,198) rotate(8)">
      <path d="M0 0 H30 L42 12 V52 H0 Z"></path>
      <path d="M30 0 V12 H42"></path>
      <line x1="8" y1="24" x2="34" y2="24"></line>
      <line x1="8" y1="33" x2="34" y2="33"></line>
      <line x1="8" y1="42" x2="26" y2="42"></line>
    </g>

    
    <g transform="translate(226,224) rotate(18)">
      <rect x="0" y="0" width="48" height="11" rx="3"></rect>
      <line x1="11" y1="0" x2="11" y2="11"></line>
      <path d="M48 0 L60 5.5 L48 11"></path>
      <rect x="-7" y="1" width="7" height="9" rx="2"></rect>
    </g>

    
    <g transform="translate(150,150)">
      <path d="M0 0 C -4 1.5, -6 4.5, -6 9 L -1 9 L -1 3 L -3.5 3"></path>
      <path d="M12 0 C 8 1.5, 6 4.5, 6 9 L 11 9 L 11 3 L 8.5 3"></path>
    </g>

    
    <circle cx="300" cy="120" r="1.6"></circle>
    <circle cx="120" cy="300" r="1.6"></circle>
    <circle cx="312" cy="300" r="1.6"></circle>

  </g>
</svg>